<svg xmlns="http://www.w3.org/2000/svg" width="381" height="381" viewBox="0 0 381 381"><g transform="translate(-1352 -159)"><g transform="translate(1352 159)" fill="none" stroke="#de2a00" stroke-width="97"><circle cx="190.5" cy="190.5" r="190.5" stroke="none"/><circle cx="190.5" cy="190.5" r="142" fill="none"/></g><g transform="translate(1413 220)" fill="#de694e" stroke="#de694e" stroke-width="71"><circle cx="130" cy="130" r="130" stroke="none"/><circle cx="130" cy="130" r="94.5" fill="none"/></g><path d="M52.057,116.626,2.244,66.814a7.664,7.664,0,0,1,0-10.838L13.082,45.139a7.663,7.663,0,0,1,10.838,0L57.475,78.694,129.348,6.822a7.664,7.664,0,0,1,10.838,0l10.837,10.838a7.664,7.664,0,0,1,0,10.838L62.894,116.627A7.663,7.663,0,0,1,52.057,116.626Z" transform="translate(1466 287.472)" fill="#de2a00"/><path d="M110.2,1.5,4.5,48.48v70.47c0,65.185,45.1,126.141,105.7,140.94,60.6-14.8,105.7-75.755,105.7-140.94V48.48ZM86.715,189.419l-46.98-46.98,16.56-16.56,30.419,30.3,77.4-77.4,16.56,16.678Z" transform="translate(1432.5 214.493)" fill="#e9dcd9"/></g></svg>