<svg xmlns="http://www.w3.org/2000/svg" width="381" height="381" viewBox="0 0 381 381"><g transform="translate(-770 -159)"><g transform="translate(770 159)" fill="none" stroke="#de2a00" stroke-width="97"><circle cx="190.5" cy="190.5" r="190.5" stroke="none"/><circle cx="190.5" cy="190.5" r="142" fill="none"/></g><g transform="translate(831 220)" fill="#de694e" stroke="#de694e" stroke-width="71"><circle cx="130" cy="130" r="130" stroke="none"/><circle cx="130" cy="130" r="94.5" fill="none"/></g><rect width="166" height="110" transform="translate(878 268)" fill="#de2a00"/><path d="M98.729,95.325H122.56v23.831a3.4,3.4,0,0,0,3.4,3.4h20.427a3.4,3.4,0,0,0,3.4-3.4V95.325h23.831a3.4,3.4,0,0,0,3.4-3.4V71.493a3.4,3.4,0,0,0-3.4-3.4H149.8V44.258a3.4,3.4,0,0,0-3.4-3.4H125.965a3.4,3.4,0,0,0-3.4,3.4V68.089H98.729a3.4,3.4,0,0,0-3.4,3.4V91.92A3.4,3.4,0,0,0,98.729,95.325Zm146.391-74.9A20.486,20.486,0,0,0,224.694,0H47.662A20.486,20.486,0,0,0,27.236,20.427V163.414H245.12ZM217.885,136.178H54.471V27.236H217.885Zm47.662,40.853H162.367c-.315,8.43-6.26,13.618-13.933,13.618H122.56c-7.954,0-14.043-7.434-13.945-13.618H6.809A6.809,6.809,0,0,0,0,183.84v6.809a27.317,27.317,0,0,0,27.236,27.236H245.12a27.317,27.317,0,0,0,27.236-27.236V183.84A6.809,6.809,0,0,0,265.547,177.031Z" transform="translate(824.471 241.112)" fill="#e9dcd9"/></g></svg>